HIERARCHY
ROOT Hips
{
	OFFSET 0.000000 0.000000 0.000000
	CHANNELS 6 Xposition Yposition Zposition Xrotation Yrotation Zrotation
	JOINT LeftUpLeg
	{
		OFFSET 0.083882 0.000000 0.000000
		CHANNELS 3 Xrotation Yrotation Zrotation
		JOINT LeftLeg
		{
			OFFSET 0.000000 -0.455173 0.000000
			CHANNELS 3 Xrotation Yrotation Zrotation
			JOINT LeftFoot
			{
				OFFSET 0.000000 -0.420169 0.000000
				CHANNELS 3 Xrotation Yrotation Zrotation
				JOINT LeftToeBase
				{
					OFFSET 0.000000 -0.042552 0.158805
					CHANNELS 3 Xrotation Yrotation Zrotation
					End Site
					{
						OFFSET 0.000000 0.000000 0.079842
					}
				}
			}
		}
	}
	JOINT RightUpLeg
	{
		OFFSET -0.083882 0.000000 0.000000
		CHANNELS 3 Xrotation Yrotation Zrotation
		JOINT RightLeg
		{
			OFFSET 0.000000 -0.455173 0.000000
			CHANNELS 3 Xrotation Yrotation Zrotation
			JOINT RightFoot
			{
				OFFSET 0.000000 -0.420169 0.000000
				CHANNELS 3 Xrotation Yrotation Zrotation
				JOINT RightToeBase
				{
					OFFSET 0.000000 -0.042552 0.158805
					CHANNELS 3 Xrotation Yrotation Zrotation
					End Site
					{
						OFFSET 0.000000 0.000000 0.079842
					}
				}
			}
		}
	}
	JOINT Spine
	{
		OFFSET 0.000000 0.001065 0.000000
		CHANNELS 3 Xrotation Yrotation Zrotation
		JOINT Spine1
		{
			OFFSET 0.000000 0.224715 0.000000
			CHANNELS 3 Xrotation Yrotation Zrotation
			JOINT Neck
			{
				OFFSET 0.000000 0.169125 0.000000
				CHANNELS 3 Xrotation Yrotation Zrotation
				JOINT Head
				{
					OFFSET 0.000000 0.232765 0.000000
					CHANNELS 3 Xrotation Yrotation Zrotation
					End Site
					{
						OFFSET 0.000000 0.122425 0.000000
					}
				}
			}
			JOINT LeftShoulder
			{
				OFFSET 0.000000 0.169125 0.000000
				CHANNELS 3 Xrotation Yrotation Zrotation
				JOINT LeftArm
				{
					OFFSET 0.201409 -0.000001 0.000000
					CHANNELS 3 Xrotation Yrotation Zrotation
					JOINT LeftForeArm
					{
						OFFSET 0.290287 -0.000001 0.000000
						CHANNELS 3 Xrotation Yrotation Zrotation
						JOINT LeftHand
						{
							OFFSET 0.274683 -0.000001 0.000000
							CHANNELS 3 Xrotation Yrotation Zrotation
							JOINT LeftHandThumb
							{
								OFFSET 0.000000 0.000000 0.000000
								CHANNELS 3 Xrotation Yrotation Zrotation
								End Site
								{
									OFFSET 0.000000 0.000000 0.106456
								}
							}
							JOINT L_Wrist_End
							{
								OFFSET 0.106456 -0.000000 0.000000
								CHANNELS 3 Xrotation Yrotation Zrotation
								End Site
								{
									OFFSET 0.000000 0.002704 0.000000
								}
							}
						}
					}
				}
			}
			JOINT RightShoulder
			{
				OFFSET 0.000000 0.169125 0.000000
				CHANNELS 3 Xrotation Yrotation Zrotation
				JOINT RightArm
				{
					OFFSET -0.201409 -0.000001 0.000000
					CHANNELS 3 Xrotation Yrotation Zrotation
					JOINT RightForeArm
					{
						OFFSET -0.290287 -0.000001 0.000000
						CHANNELS 3 Xrotation Yrotation Zrotation
						JOINT RightHand
						{
							OFFSET -0.274683 -0.000001 0.000000
							CHANNELS 3 Xrotation Yrotation Zrotation
							JOINT RightHandThumb
							{
								OFFSET 0.000000 0.000000 0.000000
								CHANNELS 3 Xrotation Yrotation Zrotation
								End Site
								{
									OFFSET 0.000000 0.000000 0.106456
								}
							}
							JOINT R_Wrist_End
							{
								OFFSET -0.145845 -0.000001 0.000000
								CHANNELS 3 Xrotation Yrotation Zrotation
								End Site
								{
									OFFSET 0.000000 0.002704 0.000000
								}
							}
						}
					}
				}
			}
		}
	}
}
MOTION
Frames: 7
Frame Time: 0.008333
0.264351 0.906394 -0.191027 2.463186 -83.440999 1.095187 2.867799 9.200101 10.867002 3.825199 -0.000001 -0.000000 -8.606901 16.234098 -33.792907 -2.399801 -0.000001 -0.000002 8.327898 -4.971600 -0.941600 3.518300 0.000000 -0.000000 -20.828197 -4.808799 4.616101 4.550099 -0.000000 -0.000000 -7.419700 0.657400 0.706800 1.805899 -0.718000 1.087100 20.215092 11.067800 2.238601 -16.922195 -9.302201 -4.546600 18.337294 -2.766503 23.712400 -3.501500 2.367200 -98.319514 -0.000099 -33.257403 0.000000 -0.946000 3.350500 -4.649299 0.000000 -0.000001 0.000000 0.000000 -0.000001 0.000000 18.072196 -4.659797 -15.867998 -0.186101 -6.547599 95.942404 -0.000099 21.581798 0.000001 -32.259796 9.420701 30.041798 0.000001 -0.000001 -0.000002 -0.000000 -0.000003 -0.000002 
0.263245 0.906262 -0.192798 1.595392 -83.576899 0.291593 2.196699 9.374400 11.036004 5.474898 -0.000000 -0.000000 -9.234203 16.160298 -33.804997 -2.394599 0.000001 0.000001 8.244198 -5.045700 -0.931200 3.990100 -0.000000 0.000000 -21.143395 -4.553199 4.618001 4.542100 0.000000 -0.000000 -7.322699 0.661400 0.716100 1.960399 -0.716700 1.067900 20.185898 11.325801 2.024601 -16.951997 -9.277999 -4.757001 18.213295 -3.017005 23.476497 -3.557900 2.320400 -98.819006 -0.000098 -30.831901 0.000001 -2.812799 3.198799 -4.650497 -0.000000 0.000001 0.000001 -0.000000 -0.000001 0.000001 17.790797 -4.421098 -15.783800 -0.121599 -6.244600 96.801307 -0.000098 20.549498 0.000003 -32.611093 9.469598 30.051398 -0.000001 0.000001 0.000000 -0.000000 0.000001 0.000001 
0.262758 0.906018 -0.195229 3.992075 -83.505497 2.542375 0.905899 9.123800 11.470802 7.521300 -0.000003 -0.000001 -9.991401 16.267796 -33.877895 -2.268700 0.000001 0.000003 7.729000 -5.190300 -0.652800 4.601099 -0.000000 0.000000 -21.504501 -4.413400 4.448700 4.582799 0.000000 -0.000000 -7.319699 0.561000 0.665500 1.727900 -0.814900 1.137600 20.188994 11.171301 2.201301 -16.916101 -8.756199 -5.203301 18.355597 -3.037504 23.525499 -3.879000 2.333799 -99.536606 -0.000098 -28.309801 -0.000000 -4.294499 3.156902 -4.620500 0.000001 -0.000001 0.000001 -0.000000 -0.000002 0.000001 18.222398 -4.436298 -15.494301 -0.922899 -5.243900 97.374906 -0.000099 19.421001 -0.000001 -33.527995 9.577900 30.068993 0.000003 0.000000 -0.000001 0.000003 0.000001 0.000000 
0.261772 0.905848 -0.196973 3.363665 -83.669701 1.992464 0.081100 9.119000 11.620103 9.490597 0.000002 -0.000000 -10.562598 16.433295 -33.804304 -2.299102 0.000003 -0.000002 7.882199 -4.248500 -0.621100 4.547600 0.000000 -0.000000 -21.612902 -5.096500 4.244000 4.390602 0.000000 0.000000 -7.220999 0.603500 0.674300 1.879999 -0.775500 1.105300 20.132896 11.416900 1.987001 -16.911495 -8.745099 -5.411500 18.275894 -3.262502 23.272900 -3.954800 2.325800 -99.889106 -0.000098 -26.151302 0.000000 -5.956599 3.430300 -5.040799 0.000001 0.000001 -0.000000 0.000001 0.000000 0.000000 17.915195 -4.175397 -15.465099 -0.835799 -4.901900 98.126910 -0.000099 18.582298 0.000000 -33.792593 10.009407 29.573097 0.000001 -0.000002 0.000000 -0.000002 -0.000001 -0.000001 
0.261306 0.905532 -0.199455 5.528875 -83.425303 3.929075 -1.418000 8.657199 12.147801 11.922299 -0.000001 0.000001 -11.304798 16.622696 -33.828602 -2.206300 0.000002 0.000002 7.618799 -4.077601 -0.209100 4.711200 0.000000 0.000000 -21.769000 -5.364900 4.039300 4.453700 0.000000 -0.000000 -7.188000 0.482499 0.673500 1.635599 -0.897599 1.194600 20.125593 11.172100 2.208902 -16.866894 -8.233897 -5.892501 18.366597 -3.424904 23.383298 -4.197298 2.127499 -100.465007 -0.000099 -23.853000 -0.000001 -7.399899 3.305201 -4.876500 -0.000000 0.000001 -0.000000 0.000000 0.000001 -0.000000 18.269894 -4.198698 -15.254398 -1.466900 -4.084499 98.638908 -0.000099 17.748699 0.000001 -33.894698 11.287799 28.238193 -0.000001 0.000000 0.000001 -0.000000 -0.000000 0.000000 
0.261160 0.905210 -0.201754 8.165082 -83.405598 6.288483 -2.996000 8.310400 12.666802 14.449094 0.000000 -0.000000 -11.944498 16.989800 -33.637906 -2.345798 -0.000004 0.000002 7.162499 -4.025401 0.195400 5.069399 -0.000000 0.000000 -21.931299 -5.308800 3.632999 4.352800 -0.000000 0.000000 -7.134999 0.450400 0.826400 1.376899 -0.943700 1.326800 20.087993 11.324400 2.063601 -16.771396 -8.148303 -6.135201 18.377194 -3.504904 23.201695 -4.362701 1.910600 -100.785909 -0.000098 -21.903197 -0.000000 -8.584798 3.629901 -5.413600 -0.000000 0.000001 -0.000000 0.000000 0.000000 -0.000000 18.351197 -4.113598 -15.286197 -1.789299 -3.378901 99.224508 -0.000099 17.117398 -0.000001 -33.158594 13.902201 25.498800 0.000002 0.000001 0.000000 0.000001 0.000001 0.000000 
0.260052 0.904910 -0.203352 7.258563 -83.502300 5.442664 -3.907299 7.864097 12.762704 16.821597 -0.000000 0.000000 -12.438895 17.679800 -33.343204 -2.194199 -0.000000 0.000001 7.248597 -3.822900 0.242000 5.255999 0.000000 -0.000000 -22.190899 -5.433900 3.601401 4.552399 -0.000000 0.000000 -7.008499 0.499800 0.817800 1.569901 -0.896400 1.293500 19.951495 11.460401 1.937302 -16.723599 -8.098900 -6.291901 18.245894 -3.737203 23.074496 -4.329598 1.723900 -101.064205 -0.000099 -20.279699 0.000000 -9.419598 4.104201 -5.815299 0.000001 0.000001 0.000000 0.000001 0.000001 0.000001 18.155795 -3.874298 -15.321996 -1.807298 -3.183400 99.693407 -0.000099 16.567498 -0.000001 -31.815899 16.278398 23.248398 -0.000000 0.000001 -0.000000 0.000001 -0.000001 -0.000000 
